<svg xmlns="http://www.w3.org/2000/svg" viewBox="0 0 380 64" fill="none">
  <!-- SUBJETIVIDADES CENTRO PSICOLOGICA CLINICA - Horizontal Logo
       Layout: Isotipo left + text right
       Palette: Teal-600 (#0d9488), Slate-900 (#1a2332), Slate-500 (#64748b) -->

  <!-- Isotipo -->
  <circle cx="32" cy="32" r="30" fill="#0d9488"/>
  <path d="M22 14 C22 14 28 12 32 14 C38 17 40 22 38 28 C37 31 34 33 30 33 C26 33 24 31 22 28"
        stroke="#ffffff" stroke-width="2.5" fill="none" stroke-linecap="round"/>
  <path d="M42 50 C42 50 36 52 32 50 C26 47 24 42 26 36 C27 33 30 31 34 31 C38 31 40 33 42 36"
        stroke="#ffffff" stroke-width="2.5" fill="none" stroke-linecap="round"/>
  <path d="M30 33 C28 34 28 36 30 37 M34 31 C36 30 36 28 34 27"
        stroke="#ffffff" stroke-width="1.5" fill="none" stroke-linecap="round" opacity="0.7"/>
  <circle cx="32" cy="32" r="3" fill="#ffffff" opacity="0.9"/>
  <circle cx="32" cy="32" r="10" stroke="#ffffff" stroke-width="0.75" fill="none" opacity="0.25"/>
  <circle cx="32" cy="32" r="18" stroke="#ffffff" stroke-width="0.5" fill="none" opacity="0.15"/>

  <!-- Brand name -->
  <text x="76" y="28" font-family="DM Sans, sans-serif" font-size="18" font-weight="700" fill="#1a2332" letter-spacing="0.08em">SUBJETIVIDADES</text>

  <!-- Subtitle -->
  <text x="76" y="46" font-family="DM Sans, sans-serif" font-size="11" font-weight="500" fill="#64748b" letter-spacing="0.12em">CENTRO PSICOLOGICA CLINICA</text>
</svg>
