<svg xmlns="http://www.w3.org/2000/svg" width="148.642" height="24.991" viewBox="0 0 148.642 24.991">
  <g id="Jooycar_logoB_Mesa_de_trabajo_1" data-name="Jooycar_logoB_Mesa de trabajo 1" transform="translate(-79.6 -67)">
    <path id="SVGID" d="M299.078,74.511c-.712-.053-1.537-.081-2.449-.081-.715,0-1.39.028-2.006.081-.494.044-.862.087-1.09.131l-4.168,8.089-.156.312-.159-.312-4.165-8.089c-.241-.041-.644-.084-1.2-.131-.684-.053-1.393-.081-2.112-.081-.912,0-1.759.028-2.515.081-.459.034-.84.069-1.131.1l7.832,13.372.022.041v7.383c.59.091,1.14.159,1.643.206.581.056,1.106.084,1.562.084s.984-.028,1.562-.084c.5-.047,1.069-.116,1.684-.206V88.042l.025-.041,7.873-13.394c-.275-.031-.625-.066-1.069-.1" transform="translate(-136.367 -5.109)" fill="#fff" fill-rule="evenodd"/>
    <path id="SVGID-2" data-name="SVGID" d="M362.414,90.916a16.713,16.713,0,0,1-1.912.59,9.8,9.8,0,0,1-2.187.216,6.83,6.83,0,0,1-1.912-.262,4.146,4.146,0,0,1-1.631-.906,4.44,4.44,0,0,1-1.122-1.721,7.5,7.5,0,0,1-.422-2.684c0-2.037.481-3.5,1.425-4.355a5.127,5.127,0,0,1,3.546-1.272c.356,0,.706,0,1.04.022a8.9,8.9,0,0,1,1.025.106c.35.059.719.141,1.1.237.312.081.672.187,1.044.312a11.128,11.128,0,0,0,.9-2.428,9.317,9.317,0,0,0,.253-2.524c-.587-.219-1.128-.4-1.609-.55a11.561,11.561,0,0,0-1.562-.366,14.09,14.09,0,0,0-1.537-.166c-.528-.028-1.087-.041-1.662-.041a11.634,11.634,0,0,0-4.49.812,9.372,9.372,0,0,0-3.287,2.243,9.559,9.559,0,0,0-2.034,3.465,15.075,15.075,0,0,0,0,9.06,9.435,9.435,0,0,0,2.049,3.437,9.039,9.039,0,0,0,3.343,2.187,12.853,12.853,0,0,0,4.624.772,24.253,24.253,0,0,0,3.146-.206,14.665,14.665,0,0,0,3.246-.865,10.8,10.8,0,0,0-.4-2.893,10.026,10.026,0,0,0-.965-2.234" transform="translate(-183.635 -5.586)" fill="#fff" fill-rule="evenodd"/>
    <path id="SVGID-3" data-name="SVGID" d="M425.156,77.161a7.626,7.626,0,0,0-2.881-1.543,13.609,13.609,0,0,0-3.852-.509,21.685,21.685,0,0,0-3.534.331,26.509,26.509,0,0,0-3.749.919,11.866,11.866,0,0,0,.062,1.228,8.206,8.206,0,0,0,.2,1.209,5.973,5.973,0,0,0,.4,1.134c.147.312.312.669.516,1.043a17.356,17.356,0,0,1,2.562-.656,14.539,14.539,0,0,1,2.415-.244,11.009,11.009,0,0,1,1.512.106,5.159,5.159,0,0,1,1.387.4,2.856,2.856,0,0,1,1.084.872,2.568,2.568,0,0,1,.481,1.428v.331h-2.89a17.4,17.4,0,0,0-3.212.312,9.332,9.332,0,0,0-2.965,1.072,6.3,6.3,0,0,0-2.156,2.031,5.773,5.773,0,0,0-.828,3.215,7.5,7.5,0,0,0,.712,3.4,5.783,5.783,0,0,0,1.931,2.187,8.666,8.666,0,0,0,3.015,1.228,18.6,18.6,0,0,0,3.937.391,23.65,23.65,0,0,0,4.718-.456c1.384-.278,2.6-.565,3.605-.847v-12a10.675,10.675,0,0,0-.647-3.921,6.873,6.873,0,0,0-1.825-2.662Zm-3.4,10.041v5l-.131.031-.106.028a9.4,9.4,0,0,1-1.087.175,10.662,10.662,0,0,1-1.128.087,9.951,9.951,0,0,1-1.25-.087,4.759,4.759,0,0,1-1.3-.359,2.734,2.734,0,0,1-1.062-.825,2.381,2.381,0,0,1-.447-1.512,2.275,2.275,0,0,1,1.156-2.025,4.927,4.927,0,0,1,2.64-.675h2.706Z" transform="translate(-226.973 -5.574)" fill="#fff" fill-rule="evenodd"/>
    <path id="SVGID-4" data-name="SVGID" d="M496.923,87.766l-.066-.125.106-.091.084-.072c.2-.172.45-.394.747-.662a4.686,4.686,0,0,0,.825-1.04A7.029,7.029,0,0,0,499.3,84.2a7.543,7.543,0,0,0,.278-2.165,5.986,5.986,0,0,0-2.409-5.08c-1.6-1.2-4.124-1.84-7.423-1.84q-1.875,0-3.977.166c-1.3.1-2.574.231-3.8.384V96.614a16.15,16.15,0,0,0,1.637.219c.55.041,1.062.062,1.528.062s.937-.022,1.531-.062a16.08,16.08,0,0,0,1.675-.219V80.181l.144-.028.112-.022a7.059,7.059,0,0,1,1.278-.087,3.055,3.055,0,0,1,2.306.787,2.812,2.812,0,0,1,.734,1.993,4.308,4.308,0,0,1-.587,2.187A5.552,5.552,0,0,1,490.2,86.9l-.334.191,4.465,9.466a12.621,12.621,0,0,0,1.606.209c.722.056,1.475.084,2.24.084.625,0,1.287-.028,1.968-.084.5-.041.975-.1,1.412-.169Z" transform="translate(-276.66 -5.576)" fill="#fff" fill-rule="evenodd"/>
    <path id="SVGID-5" data-name="SVGID" d="M154.283,78.006a9.038,9.038,0,0,0-3.346-2.187,12.134,12.134,0,0,0-3.712-.75c-.225,0-.453-.019-.675-.022s-.625,0-.862.022a12.135,12.135,0,0,0-3.712.75,9.038,9.038,0,0,0-3.346,2.187,9.4,9.4,0,0,0-2.049,3.437A14.087,14.087,0,0,0,135.887,86a13.921,13.921,0,0,0,.7,4.5,9.57,9.57,0,0,0,2.028,3.462,9.329,9.329,0,0,0,3.287,2.243,11.182,11.182,0,0,0,3.79.8h1.537a11.182,11.182,0,0,0,3.79-.8,9.329,9.329,0,0,0,3.287-2.243,9.57,9.57,0,0,0,2.028-3.462,15.074,15.074,0,0,0,0-9.06,9.391,9.391,0,0,0-2.046-3.437m-4.127,10.479a4.446,4.446,0,0,1-2.034,2.577,3.155,3.155,0,0,1-1.5.381h-.147a3.843,3.843,0,0,1-1.684-.381,4.471,4.471,0,0,1-2.037-2.577,8.386,8.386,0,0,1-.206-4.127,4.678,4.678,0,0,1,2.318-3.393,3.893,3.893,0,0,1,1.678-.372h.041a3.152,3.152,0,0,1,1.462.375,4.712,4.712,0,0,1,2.318,3.393,8.348,8.348,0,0,1-.209,4.127" transform="translate(-38.701 -5.533)" fill="#fff" fill-rule="evenodd"/>
    <path id="SVGID-6" data-name="SVGID" d="M230.315,78.006a9,9,0,0,0-3.343-2.187,12.185,12.185,0,0,0-3.715-.75c-.225,0-.453-.019-.675-.022s-.625,0-.859.022a12.138,12.138,0,0,0-3.715.75,9.038,9.038,0,0,0-3.346,2.187,9.392,9.392,0,0,0-2.046,3.437,15.074,15.074,0,0,0,0,9.06,9.57,9.57,0,0,0,2.028,3.462,9.373,9.373,0,0,0,3.287,2.243,11.182,11.182,0,0,0,3.79.8h1.54a11.179,11.179,0,0,0,3.787-.8,9.329,9.329,0,0,0,3.287-2.243,9.576,9.576,0,0,0,2.031-3.462,15.14,15.14,0,0,0,0-9.06,9.4,9.4,0,0,0-2.049-3.437m-4.124,10.479a4.449,4.449,0,0,1-2.037,2.577,3.146,3.146,0,0,1-1.5.381h-.147a3.843,3.843,0,0,1-1.684-.381,4.468,4.468,0,0,1-2.034-2.577,8.348,8.348,0,0,1-.206-4.127,4.677,4.677,0,0,1,2.315-3.393,3.911,3.911,0,0,1,1.668-.372h.041a3.165,3.165,0,0,1,1.475.375,4.71,4.71,0,0,1,2.315,3.393,8.348,8.348,0,0,1-.206,4.127" transform="translate(-90.98 -5.533)" fill="#fff" fill-rule="evenodd"/>
    <path id="SVGID-7" data-name="SVGID" d="M81.859,72.9h4.63v9.744a4.1,4.1,0,0,1-.372,1.906A2.831,2.831,0,0,1,85.18,85.6a2.7,2.7,0,0,1-1.209.425,10.411,10.411,0,0,1-1.122.066,10.288,10.288,0,0,1-1.646-.128c-.369-.062-.65-.112-.872-.156a14.147,14.147,0,0,0-.731,4.446c0,.247,0,.478.019.69a4.178,4.178,0,0,0,.037.444,16.022,16.022,0,0,0,1.943.416,15.708,15.708,0,0,0,2.384.184,13.746,13.746,0,0,0,3.668-.472,8.02,8.02,0,0,0,2.927-1.465,6.923,6.923,0,0,0,1.962-2.624,9.685,9.685,0,0,0,.731-3.949V67H81.859a14.8,14.8,0,0,0-.312,2.906,15.213,15.213,0,0,0,.312,2.99" fill="#fff" fill-rule="evenodd"/>
    <path id="SVGID-8" data-name="SVGID" d="M546.067,76.549h.2c.2,0,.312-.1.312-.253s-.1-.25-.312-.25h-.209Zm-.434.847V75.728h.722c.384,0,.7.15.7.544a.494.494,0,0,1-.312.462l.384.662h-.472l-.287-.544h-.3V77.4Zm.675.5a1.325,1.325,0,1,1,0-.012Zm0,.362a1.678,1.678,0,1,1,1.678-1.671,1.644,1.644,0,0,1-1.678,1.671Z" transform="translate(-319.744 -5.432)" fill="#fff" fill-rule="evenodd"/>
  </g>
</svg>
