<?xml version="1.0" encoding="UTF-8"?><svg id="Capa_2" xmlns="http://www.w3.org/2000/svg" viewBox="0 0 131.48 85.71"><defs><style>.cls-1{fill:#ff6713;}</style></defs><g id="Capa_1-2"><g><path class="cls-1" d="m112.62,27.29h.3c-.08-1.42-.41-3.14-.99-4.74-.58-1.59-1.37-2.91-2.34-4.15-.97-1.24-2.16-2.26-3.56-3.04-1.4-.78-3-1.17-4.79-1.17-1.95,0-3.64.35-5.08,1.08-1.44.74-2.65,1.71-3.62,2.95-.98,1.24-1.75,2.61-2.34,4.21-.58,1.59-.99,3.43-1.23,4.85h23.64ZM88.92,2.93c3.86-1.67,8.04-2.51,12.56-2.51,3.97,0,7.78.8,11.44,2.39,3.66,1.6,6.85,3.76,9.57,6.48,2.72,2.72,4.91,5.9,6.54,9.52,1.63,3.62,2.45,7.46,2.45,11.52,0,2.95-.72,4.93-2.16,5.91-1.44.97-3.52,1.48-6.24,1.48h-34.1c.86,3.79,2.72,6.71,5.61,8.97,2.88,2.26,6.31,3.36,10.28,3.36,2.1,0,4.26-.07,6.36-.64,4.9-1.34,9.19-3.21,12.19-4.89.2-.11.45-.06.59.12l7.34,9.7c.15.2.11.5-.09.65-9.97,7.64-16.67,8.74-19.33,9.24-2.69.5-5.51.76-8.47.76-4.75,0-9.16-.78-13.25-2.33-4.08-1.55-7.65-3.76-10.68-6.6-.84-.79-1.63-1.63-2.37-2.5l-1.6,3.96c-.86,2.03-1.99,3.72-3.39,5.08-1.4,1.37-3.31,2.05-5.72,2.05-2.26,0-4.16-.63-5.72-1.87-1.56-1.24-2.65-2.88-3.27-4.9l-9.72-28.61c-.14-.42-.73-.42-.88,0l-9.84,28.5c-.7,2.02-1.81,3.68-3.33,4.96-1.52,1.28-3.41,1.93-5.67,1.93-2.41,0-4.34-.66-5.78-1.99-1.44-1.32-2.55-2.99-3.33-5.02L.03,7.47c-.09-.23.02-.48.24-.58L14.94.04c.25-.12.55.01.64.27l12.56,37.79L38.89,5.82c.06-.19.24-.32.44-.32h15.79c.2,0,.38.13.44.32l10.2,30.95c.14.42.74.42.88,0l4.39-13.38s.01-.02.02-.02c.33-1.18.71-2.32,1.17-3.45,1.6-3.89,3.81-7.28,6.66-10.16,2.84-2.88,6.19-5.16,10.04-6.83"/><g><path d="m78.93,85.54v-9.92h-3.42v-2.05h9.16v2.05h-3.52v9.92h-2.22Z"/><path d="m86.86,85.54v-11.97h7.83v2.02h-5.64v7.93h5.71v2.02h-7.9Zm1.03-5.13v-1.98h5.93v1.98h-5.93Z"/><path d="m102.62,85.71c-.87,0-1.66-.15-2.38-.44-.72-.3-1.34-.72-1.86-1.27-.52-.55-.93-1.21-1.22-1.97s-.44-1.59-.44-2.49.15-1.67.46-2.41c.31-.74.74-1.39,1.28-1.95.55-.56,1.18-.99,1.91-1.3.73-.31,1.52-.46,2.38-.46.58,0,1.15.09,1.69.26.55.17,1.05.41,1.5.71s.84.65,1.15,1.05l-1.42,1.56c-.3-.31-.6-.57-.91-.78s-.64-.37-.97-.48c-.34-.11-.68-.16-1.03-.16-.53,0-1.02.1-1.48.29-.46.19-.86.47-1.2.82-.34.35-.6.77-.8,1.26-.19.48-.29,1.02-.29,1.62s.09,1.15.28,1.64c.19.49.46.91.8,1.26s.76.62,1.25.81c.48.19,1.02.28,1.6.28.38,0,.74-.05,1.09-.15.35-.1.68-.25.98-.44.3-.19.58-.41.83-.66l1.09,1.76c-.27.31-.64.59-1.09.84-.46.25-.97.45-1.53.59s-1.12.21-1.68.21Z"/><path d="m109.24,85.54v-11.97h2.22v11.97h-2.22Zm.92-4.92v-2.08h7.83v2.08h-7.83Zm6.75,4.92v-11.97h2.22v11.97h-2.22Z"/><path d="m126.16,85.71c-.7,0-1.33-.09-1.91-.26-.58-.18-1.11-.44-1.57-.8-.47-.35-.88-.78-1.25-1.28l1.45-1.64c.56.78,1.11,1.31,1.64,1.61.54.3,1.14.44,1.81.44.39,0,.74-.06,1.06-.18s.57-.28.75-.5c.18-.21.27-.45.27-.73,0-.19-.04-.37-.11-.54s-.19-.31-.33-.44-.33-.25-.55-.37c-.22-.11-.46-.21-.74-.29-.27-.08-.58-.15-.91-.22-.63-.12-1.17-.29-1.64-.5-.47-.21-.86-.47-1.18-.79-.32-.31-.55-.67-.7-1.06-.15-.39-.22-.84-.22-1.34s.11-.96.33-1.39.53-.79.91-1.09.84-.55,1.35-.72c.51-.17,1.07-.26,1.66-.26.67,0,1.27.08,1.8.24.53.16,1,.4,1.4.71s.74.69,1,1.14l-1.47,1.45c-.23-.35-.48-.65-.77-.88-.28-.23-.59-.41-.92-.53-.33-.12-.68-.18-1.04-.18-.41,0-.77.06-1.07.17s-.54.28-.71.49c-.17.21-.26.46-.26.76,0,.23.05.43.15.61s.25.33.44.47c.19.14.43.26.73.36.3.1.63.19,1.01.27.63.13,1.19.29,1.69.5.5.21.93.46,1.28.75.35.29.62.62.8.99.18.37.27.78.27,1.24,0,.79-.19,1.46-.56,2.03-.37.56-.89,1-1.56,1.3-.67.3-1.46.45-2.36.45Z"/></g></g></g></svg>